<svg width="281mm" height="90mm" viewBox="0 0 28100 9000" xmlns="http://www.w3.org/2000/svg" stroke-width="28.222" stroke-linejoin="round" xml:space="preserve"><path fill="none" stroke="#B3B3B3" stroke-width="100" d="M27146 8117H3434m23712-1297H3434m23712-1296H3434m23712-1296H3434m23712-1297H3434m23712-1296H3434M27146 337H3434m0 7930v-150m0 150v-150m2155 150v-150m0 150v-150m2156 150v-150m0 150v-150m2156 150v-150m0 150v-150m2155 150v-150m0 150v-150m2155 150v-150m0 150v-150m2156 150v-150m0 150v-150m2156 150v-150m0 150v-150m2155 150v-150m0 150v-150m2156 150v-150m0 150v-150m2156 150v-150m0 150v-150m2156 150v-150m0 150v-150m-23712 0h23712"/><path fill="#60A5F8" d="m3434 7789 2155-514 2156 79 2156-112 2155-683 2155-449 2156-517 2156-592 2155-935 2156-886 2156-1396 2156-812v7145H3434v-328z"/><text class="SVGTextShape"><tspan class="TextParagraph"><tspan class="TextPosition" x="2940" y="8869"><tspan font-family="Liberation Sans, sans-serif" font-size="563" font-weight="400" fill="#60A5F8" style="white-space:pre">Sep</tspan></tspan></tspan></text><text class="SVGTextShape"><tspan class="TextParagraph"><tspan class="TextPosition" x="5158" y="8869"><tspan font-family="Liberation Sans, sans-serif" font-size="563" font-weight="400" fill="#60A5F8" style="white-space:pre">Oct</tspan></tspan></tspan></text><text class="SVGTextShape"><tspan class="TextParagraph"><tspan class="TextPosition" x="7252" y="8869"><tspan font-family="Liberation Sans, sans-serif" font-size="563" font-weight="400" fill="#60A5F8" style="white-space:pre">Nov</tspan></tspan></tspan></text><text class="SVGTextShape"><tspan class="TextParagraph"><tspan class="TextPosition" x="9408" y="8869"><tspan font-family="Liberation Sans, sans-serif" font-size="563" font-weight="400" fill="#60A5F8" style="white-space:pre">Dec</tspan></tspan></tspan></text><text class="SVGTextShape"><tspan class="TextParagraph"><tspan class="TextPosition" x="11609" y="8869"><tspan font-family="Liberation Sans, sans-serif" font-size="563" font-weight="400" fill="#60A5F8" style="white-space:pre">Jan</tspan></tspan></tspan></text><text class="SVGTextShape"><tspan class="TextParagraph"><tspan class="TextPosition" x="13734" y="8869"><tspan font-family="Liberation Sans, sans-serif" font-size="563" font-weight="400" fill="#60A5F8" style="white-space:pre">Feb</tspan></tspan></tspan></text><text class="SVGTextShape"><tspan class="TextParagraph"><tspan class="TextPosition" x="15889" y="8869"><tspan font-family="Liberation Sans, sans-serif" font-size="563" font-weight="400" fill="#60A5F8" style="white-space:pre">Mar</tspan></tspan></tspan></text><text class="SVGTextShape"><tspan class="TextParagraph"><tspan class="TextPosition" x="18091" y="8869"><tspan font-family="Liberation Sans, sans-serif" font-size="563" font-weight="400" fill="#60A5F8" style="white-space:pre">Apr</tspan></tspan></tspan></text><text class="SVGTextShape"><tspan class="TextParagraph"><tspan class="TextPosition" x="20154" y="8869"><tspan font-family="Liberation Sans, sans-serif" font-size="563" font-weight="400" fill="#60A5F8" style="white-space:pre">May</tspan></tspan></tspan></text><text class="SVGTextShape"><tspan class="TextParagraph"><tspan class="TextPosition" x="22387" y="8869"><tspan font-family="Liberation Sans, sans-serif" font-size="563" font-weight="400" fill="#60A5F8" style="white-space:pre">Jun</tspan></tspan></tspan></text><text class="SVGTextShape"><tspan class="TextParagraph"><tspan class="TextPosition" x="24636" y="8869"><tspan font-family="Liberation Sans, sans-serif" font-size="563" font-weight="400" fill="#60A5F8" style="white-space:pre">Jul</tspan></tspan></tspan></text><text class="SVGTextShape"><tspan class="TextParagraph"><tspan class="TextPosition" x="26652" y="8869"><tspan font-family="Liberation Sans, sans-serif" font-size="563" font-weight="400" fill="#60A5F8" style="white-space:pre">Aug</tspan></tspan></tspan></text><text class="SVGTextShape"><tspan class="TextParagraph"><tspan class="TextPosition" x="2875" y="8317"><tspan font-family="Liberation Sans, sans-serif" font-size="563" font-weight="400" fill="#60A5F8" style="white-space:pre">0</tspan></tspan></tspan></text><text class="SVGTextShape"><tspan class="TextParagraph"><tspan class="TextPosition" x="1176" y="7020"><tspan font-family="Liberation Sans, sans-serif" font-size="563" font-weight="400" fill="#60A5F8" style="white-space:pre">500.000</tspan></tspan></tspan></text><text class="SVGTextShape"><tspan class="TextParagraph"><tspan class="TextPosition" x="712" y="5724"><tspan font-family="Liberation Sans, sans-serif" font-size="563" font-weight="400" fill="#60A5F8" style="white-space:pre">1.000.000</tspan></tspan></tspan></text><text class="SVGTextShape"><tspan class="TextParagraph"><tspan class="TextPosition" x="712" y="4428"><tspan font-family="Liberation Sans, sans-serif" font-size="563" font-weight="400" fill="#60A5F8" style="white-space:pre">1.500.000</tspan></tspan></tspan></text><text class="SVGTextShape"><tspan class="TextParagraph"><tspan class="TextPosition" x="712" y="3130"><tspan font-family="Liberation Sans, sans-serif" font-size="563" font-weight="400" fill="#60A5F8" style="white-space:pre">2.000.000</tspan></tspan></tspan></text><text class="SVGTextShape"><tspan class="TextParagraph"><tspan class="TextPosition" x="712" y="1834"><tspan font-family="Liberation Sans, sans-serif" font-size="563" font-weight="400" fill="#60A5F8" style="white-space:pre">2.500.000</tspan></tspan></tspan></text><text class="SVGTextShape"><tspan class="TextParagraph"><tspan class="TextPosition" x="712" y="537"><tspan font-family="Liberation Sans, sans-serif" font-size="563" font-weight="400" fill="#60A5F8" style="white-space:pre">3.000.000</tspan></tspan></tspan></text><path fill="#60A5F8" d="M10681 1100h-169V763h338v337h-169z"/><text class="SVGTextShape"><tspan class="TextParagraph"><tspan class="TextPosition" x="10974" y="1129"><tspan font-family="Liberation Sans, sans-serif" font-size="563" font-weight="700" fill="#60A5F8" style="white-space:pre">Biome monthly NPM downloads</tspan></tspan></tspan></text></svg>