<svg xmlns="http://www.w3.org/2000/svg" width="500" height="170" fill="none" viewBox="0 0 500 170"><rect width="498" height="168" x="1" y="1" fill="url(#b)" rx="39"/><rect width="498" height="168" x="1" y="1" stroke="url(#a)" stroke-width="2" rx="39"/><g fill="#fff"><path fill-rule="evenodd" d="M104.74 102.42c-3.2 0-5.81-2.7-5.81-6v-.2h-5.94v.17c0 6.7 5.25 12.13 11.74 12.13s11.74-5.42 11.74-12.13v-.16h-5.93v.16a5.9 5.9 0 0 1-5.79 6.03h-.02zM93.29 62.94a8.6 8.6 0 0 0-8.43 8.8c.03 4.83 3.84 8.73 8.52 8.7a8.6 8.6 0 0 0 8.43-8.72c0-4.85-3.8-8.77-8.48-8.78zm-2.66 8.78a2.74 2.74 0 0 1 2.66-2.78 2.73 2.73 0 0 1 2.7 2.75 2.74 2.74 0 0 1-2.67 2.78h-.03a2.7 2.7 0 0 1-2.66-2.75M79.05 56.27c16.33-5.35 22.5-8.7 25.33-10.35 2.78 1.64 9 4.98 25.33 10.35 0 1.9 1.02 60.07-25.33 60.03S79.05 58.16 79.05 56.27m25.33 67.8c34.08 0 32.73-70.96 32.73-73.42-21.1-6.92-29.12-11.22-32.73-13.3-3.63 2.11-11.66 6.41-32.77 13.3 0 2.46-1.3 73.45 32.77 73.41m2.75-55.53v5.91h16.4v-5.91z" clip-rule="evenodd"/><path d="M135.4 130.3c9.9-5.28 11.57-14.26 8.1-18.65-7.75 5.94-9.22 13.77-8.1 18.65M155.28 36c-1.7 10.27 2.21 17.75 6.62 20.05 3.6-10.37-2.76-18.3-6.62-20.05m-4.91 79.45c7.26-8.35 5.06-16.72.39-19.5-4.37 7.59-3.68 14.68-.39 19.5m3.94-34.4c-2.19 9.2 1.78 15.13 4.97 17.49 3.97-9.86-.78-16.2-4.97-17.49m7.86 1.5c1.92-9.25-2.9-15.16-7.41-15.86-.77 8.35 2.9 13.79 7.41 15.86m.43-15.49c.29-9.62-5.36-13.02-8.36-13.1.18 7.92 4.53 12.05 8.36 13.1m-26.06 64.82c5.5 3.68 15.6 1.62 21.28-9.1-6.97-2.37-15.86 4.19-21.28 9.1m14.84-15.78c6.53 2.3 15.6-3.04 17.79-14.05-7.07-.45-13.88 8.1-17.79 14.05m9.41-16.96a8 8 0 0 0 1.74-.23c6.68-1.47 10.32-8.48 9.9-16.39-6.44 1.2-9.93 10.2-11.64 16.62m2.97-16.83c5.44-.85 10.5-7.2 8.95-16.88-5.96 1.82-8.36 10.48-8.95 16.88m.52-15.55c3.38-1.4 7.84-6.95 4.54-15.98-4.97 2.52-5.4 10.23-4.54 15.98M73.6 130.3c-9.9-5.28-11.57-14.26-8.1-18.65 7.75 5.94 9.22 13.77 8.1 18.65M53.72 36c1.7 10.27-2.21 17.75-6.62 20.05-3.6-10.37 2.76-18.3 6.62-20.05m4.91 79.45c-7.26-8.35-5.06-16.72-.39-19.5 4.37 7.59 3.68 14.68.4 19.5m-3.94-34.4c2.18 9.2-1.79 15.13-4.98 17.49-3.97-9.86.78-16.2 4.97-17.49m-7.86 1.5c-1.92-9.25 2.9-15.16 7.4-15.86.78 8.35-2.89 13.79-7.4 15.86m-.43-15.49c-.29-9.62 5.36-13.02 8.37-13.1-.19 7.92-4.54 12.05-8.37 13.1m26.06 64.82c-5.5 3.68-15.6 1.62-21.28-9.1 6.97-2.37 15.86 4.19 21.28 9.1M57.62 116.1c-6.53 2.3-15.6-3.04-17.79-14.05 7.07-.45 13.89 8.1 17.8 14.05M48.2 99.14a8 8 0 0 1-1.73-.23c-6.68-1.47-10.32-8.48-9.9-16.39 6.44 1.2 9.93 10.2 11.64 16.62m-2.97-16.83c-5.44-.85-10.51-7.2-8.96-16.88 5.97 1.82 8.36 10.48 8.96 16.88m-.52-15.55c-3.38-1.4-7.83-6.95-4.54-15.98 4.97 2.52 5.4 10.23 4.54 15.98m161.88.41c-5.3 0-8.56-2.97-8.56-8.31v-1.78h5.1v1.81c0 2.4 1.3 3.73 3.4 3.73s3.4-1.32 3.4-3.73V40.6h5.41v18.37c0 5.27-3.32 8.21-8.75 8.21m18.16-.07c-3.71 0-6.38-1.85-6.38-5.55 0-4.19 3.37-5.38 7.24-5.74 3.4-.33 4.59-.49 4.59-1.68V54c0-1.37-1.15-2.32-3.04-2.32-1.94 0-3.2.99-3.33 2.41h-4.87c.23-3.83 3.26-6.26 8.35-6.26s8 2.4 8 6.37v12.58h-5.06v-2.62h-.07c-.99 1.81-2.58 2.94-5.43 2.94m1.44-3.6c2.5 0 4.04-1.5 4.04-3.5v-1.87c-.6.34-2.05.58-3.72.85-1.78.26-3.19.95-3.19 2.42 0 1.32 1.13 2.1 2.87 2.1m17.26 3.28-6.87-18.56h5.43l3.06 9.18q.7 2.2 1.33 4.4l1.3-4.4 3.03-9.18h5.38l-6.9 18.56zm19.76.32c-3.71 0-6.38-1.85-6.38-5.55 0-4.19 3.37-5.38 7.24-5.74 3.4-.33 4.59-.49 4.59-1.68V54c0-1.37-1.15-2.32-3.04-2.32-1.94 0-3.2.99-3.32 2.41h-4.87c.22-3.83 3.25-6.26 8.35-6.26 5.08 0 8 2.4 8 6.37v12.58h-5.07v-2.62h-.07c-.98 1.81-2.58 2.94-5.43 2.94m1.44-3.6c2.5 0 4.04-1.5 4.04-3.5v-1.87c-.6.34-2.05.58-3.72.85-1.78.26-3.19.95-3.19 2.42 0 1.32 1.13 2.1 2.87 2.1m22.82 3.7c-6.72 0-10.64-3.32-10.64-9.01h5.22c.07 2.88 2.1 4.57 5.45 4.57 3 0 5-1.32 5-3.36 0-1.69-1.38-2.67-4.7-3.4l-2.76-.59c-5.18-1.12-7.7-3.53-7.7-7.28 0-4.76 4-7.96 9.95-7.96 6.03 0 9.77 3.18 9.93 8.46h-5.06c-.2-2.48-2.04-4.01-4.85-4.01-2.67 0-4.55 1.33-4.55 3.25 0 1.62 1.3 2.51 4.51 3.22l2.52.54c5.59 1.18 8.07 3.48 8.07 7.42 0 5.04-3.94 8.16-10.4 8.16m21.95 0c-5.59 0-9.32-3.93-9.32-9.68s3.75-9.72 9.32-9.72c4.89 0 8.39 3.04 8.72 7.36h-5c-.27-1.9-1.57-3.18-3.65-3.18-2.62 0-4.16 2.15-4.16 5.54 0 3.37 1.56 5.5 4.16 5.5 2.1 0 3.27-1.26 3.6-3.22h5.05c-.23 4.3-3.78 7.4-8.72 7.4m11.5-.42V48.22h4.99v3.17h.05c.69-2.24 2.1-3.3 4.54-3.3q.9.01 1.53.04v4.42c-.39-.02-1.36-.1-2.24-.1-2.12 0-3.69 1.48-3.69 4.28v10.05zm13.64 0V48.22h5.18v18.56zm2.58-20.9c-1.7 0-2.95-1.17-2.95-2.76s1.25-2.76 2.95-2.76 2.96 1.18 2.96 2.76c0 1.59-1.25 2.76-2.96 2.76m6.28 28.25v-25.9h5.11v2.5h.06c1.14-1.93 3.09-2.9 5.5-2.9 4.74 0 8 3.96 8 9.66 0 5.81-3.19 9.68-8.04 9.68a5.7 5.7 0 0 1-5.4-3.16h-.05v10.12zm9.3-11.18c2.51 0 4.14-1.99 4.14-5.47s-1.63-5.46-4.14-5.46c-2.62 0-4.36 2.16-4.36 5.46 0 3.33 1.74 5.47 4.36 5.47m22.88-14.73v4.06h-3.8v8.77c0 1.27.41 1.67 1.82 1.67h1.98v4.06h-3.02c-4.08 0-5.96-1.54-5.96-4.92v-9.58h-3.2v-4.06h3.2v-5.06h5.19v5.06zm-165.16 53.99c-7.05 0-12.34-5.2-12.34-13.5 0-8.35 5.3-13.54 12.34-13.54s12.36 5.19 12.36 13.54c0 8.33-5.3 13.5-12.36 13.5m0-4.79c4.05 0 6.91-3.16 6.91-8.71 0-5.6-2.86-8.76-6.9-8.76s-6.9 3.17-6.9 8.76c0 5.55 2.85 8.71 6.9 8.71m25.35 4.79c-6.71 0-10.63-3.33-10.63-9.02h5.22c.07 2.88 2.09 4.57 5.45 4.57 3 0 4.99-1.32 4.99-3.36 0-1.69-1.37-2.67-4.7-3.4l-2.76-.59c-5.18-1.12-7.7-3.53-7.7-7.28 0-4.76 4-7.96 9.95-7.96 6.03 0 9.78 3.18 9.94 8.46h-5.07c-.19-2.48-2.04-4.01-4.85-4.01-2.67 0-4.55 1.33-4.55 3.25 0 1.62 1.3 2.51 4.52 3.22l2.51.54c5.6 1.18 8.07 3.48 8.07 7.42 0 5.04-3.94 8.16-10.39 8.16m19.51-.43 9.2-26.19h6.96l9.19 26.2h-6l-1.82-5.72h-9.8l-1.9 5.71zm9.2-10.03h6.92l-.88-2.71c-.8-2.67-1.61-5.34-2.55-8.6a397 397 0 0 1-2.6 8.6zm19.84 10.03-5.71-18.56h5.41l1.7 6.49c.57 2.2 1.08 4.55 1.59 6.85.56-2.3 1.12-4.66 1.7-6.85l1.78-6.49h4.68l1.75 6.49a274 274 0 0 1 1.7 6.84c.5-2.3 1-4.65 1.54-6.84l1.69-6.49h5.5l-5.72 18.56h-5.36l-2.16-7.38c-.44-1.56-.86-3.22-1.28-4.87q-.63 2.5-1.3 4.87l-2.18 7.38zm30.7.32c-3.72 0-6.39-1.85-6.39-5.55 0-4.19 3.38-5.38 7.24-5.74 3.4-.33 4.6-.49 4.6-1.68V89c0-1.37-1.15-2.32-3.05-2.32-1.93 0-3.2.99-3.32 2.41h-4.87c.23-3.83 3.25-6.26 8.35-6.26 5.08 0 8 2.4 8 6.37v12.58h-5.07v-2.62h-.07c-.98 1.82-2.58 2.94-5.43 2.94m1.43-3.6c2.5 0 4.05-1.5 4.05-3.5v-1.86c-.6.33-2.06.58-3.73.84-1.77.26-3.18.95-3.18 2.42 0 1.32 1.12 2.1 2.86 2.1m12.78 3.28V83.22h5v3.17h.05c.68-2.24 2.1-3.3 4.53-3.3q.9.01 1.53.04v4.42c-.38-.02-1.35-.1-2.23-.1-2.13 0-3.7 1.48-3.7 4.28v10.05zm20.52.39c-4.85 0-8.04-3.87-8.04-9.69 0-5.7 3.26-9.65 8-9.65 2.41 0 4.27.95 5.47 2.96h.02v-10.2h5.16v26.2h-5.1v-2.85h-.01c-1.07 2.16-3.06 3.23-5.5 3.23m1.33-4.22c2.62 0 4.36-2.14 4.36-5.47 0-3.3-1.74-5.46-4.36-5.46-2.51 0-4.15 1.98-4.15 5.46 0 3.49 1.64 5.47 4.15 5.47m20.27 3.83v-3.97l9.6-8.2c2.32-2.05 4.02-3.54 4.02-6 0-2.5-1.65-4.12-4.22-4.12-2.8 0-4.53 1.92-4.53 5.1h-4.97c0-5.7 3.69-9.42 9.5-9.42 5.38 0 9.25 3.2 9.25 8.16 0 3.67-2.13 6.11-5.78 9.24l-5.56 4.84v.03h11.46v4.34zm31.85.43c-6.59 0-10.6-5.19-10.6-13.5 0-8.34 4.01-13.54 10.6-13.54s10.6 5.19 10.6 13.54c0 8.31-4 13.5-10.6 13.5m0-4.33c3.41 0 5.5-3.48 5.5-9.17 0-5.72-2.09-9.22-5.5-9.22-3.4 0-5.5 3.5-5.5 9.22 0 5.7 2.1 9.17 5.5 9.17m13.12 3.9v-3.97l9.6-8.2c2.31-2.05 4.02-3.54 4.02-6 0-2.5-1.65-4.12-4.22-4.12-2.81 0-4.54 1.92-4.54 5.1h-4.97c0-5.7 3.7-9.42 9.51-9.42 5.38 0 9.25 3.2 9.25 8.16 0 3.67-2.13 6.11-5.79 9.24l-5.55 4.84v.03h11.46v4.34zm-218.36 27v-13.1h5.17q1.47 0 2.54.53a4 4 0 0 1 1.66 1.49q.6.96.59 2.28c-.01 1.32-.2 1.64-.6 2.29q-.6.96-1.67 1.48-1.08.53-2.56.53h-2.42v4.5zm2.7-6.77h2.3q1.06 0 1.69-.54.62-.56.62-1.49 0-.94-.62-1.48c-.62-.54-.98-.55-1.7-.55h-2.28zm8.52 6.77v-9.28h2.5v1.58h.03q.25-.84.8-1.24.54-.4 1.46-.4l.77.01v2.21l-1.12-.04q-.8 0-1.33.54-.51.55-.51 1.6v5.02zm10.94.21a5 5 0 0 1-2.47-.6q-1.05-.61-1.66-1.7a5 5 0 0 1-.58-2.54q0-1.45.58-2.55.6-1.1 1.66-1.7t2.47-.61 2.47.61q1.06.6 1.65 1.7.6 1.1.6 2.55t-.6 2.54-1.65 1.7-2.47.6m0-2.1q.95 0 1.53-.72.58-.73.58-2.02 0-1.3-.58-2.03c-.58-.73-.9-.73-1.53-.73q-.95 0-1.52.73a3.2 3.2 0 0 0-.58 2.03q0 1.29.58 2.02.57.72 1.52.72m9.76 2.08a3.7 3.7 0 0 1-3.52-2.3 6 6 0 0 1-.5-2.54q0-1.43.5-2.51.52-1.1 1.41-1.7.9-.6 2.1-.61.9 0 1.59.37.69.35 1.14 1.1v-5.1h2.59v13.1h-2.55v-1.42q-.42.81-1.13 1.2-.72.41-1.63.41m.67-2.1q.98 0 1.58-.74.6-.75.6-2 0-1.23-.6-1.99-.6-.74-1.58-.74-.94 0-1.51.72-.57.7-.57 2.01c0 1.31.2 1.54.57 2.02q.57.71 1.5.71m9.74 2.1q-1.49 0-2.38-.95a4 4 0 0 1-.88-2.71v-5.81h2.59v5.33q0 .94.44 1.43.45.48 1.26.48.8 0 1.31-.5t.51-1.58v-5.16h2.59v9.28h-2.54v-1.46q-.47.8-1.19 1.22-.7.43-1.71.43m11.54.02q-1.4 0-2.45-.6a4.3 4.3 0 0 1-1.63-1.71 5.3 5.3 0 0 1-.58-2.53q0-1.44.58-2.53.6-1.1 1.63-1.72 1.05-.6 2.45-.61 1.22 0 2.17.47a3.9 3.9 0 0 1 2.19 3.21h-2.5a2 2 0 0 0-.59-1.15q-.46-.44-1.24-.44a1.8 1.8 0 0 0-1.53.75q-.55.75-.55 2.02 0 1.26.55 2.01.56.75 1.53.74.78 0 1.23-.44.46-.44.57-1.17h2.53a3.6 3.6 0 0 1-.63 1.9q-.57.84-1.54 1.33a5 5 0 0 1-2.2.47m11.08-9.5v2.04h-1.9v4.39q0 .47.19.65.2.18.72.18h1v2.03h-1.52q-1.53 0-2.26-.6t-.72-1.86v-4.8h-1.6v-2.02h1.6v-2.53h2.6v2.53zm1.31 9.29v-9.28h2.6v9.28zm1.3-10.45q-.66 0-1.07-.39a1.3 1.3 0 0 1-.42-.99q0-.6.42-.98.42-.4 1.06-.4t1.06.4q.42.38.42.98t-.42 1a1.5 1.5 0 0 1-1.06.38m5.76 10.45-3.44-9.28h2.72l1.53 4.59a59 59 0 0 1 .66 2.2l.32-1.1.33-1.1 1.52-4.6h2.69l-3.45 9.29zm7.34 0v-9.28h2.59v9.28zm1.29-10.45q-.64 0-1.07-.39a1.3 1.3 0 0 1-.42-.99q0-.6.42-.98.43-.4 1.07-.4.63 0 1.05.4.42.38.42.98t-.42 1a1.5 1.5 0 0 1-1.05.38m8.61 1.17v2.03h-1.9v4.38q0 .48.19.66.2.18.72.18h1v2.03H287q-1.53 0-2.26-.6t-.72-1.86v-4.8h-1.6v-2.02h1.6v-2.53h2.6v2.53zm1.98 12.95v-2.04h1.18q.46 0 .68-.23.23-.22.42-.76l.25-.67-3.57-9.25h2.72l1.55 4.59.62 2 .62-2 1.57-4.6h2.69l-4.09 10.72q-.44 1.17-1.14 1.7-.7.54-1.79.54zm13.67-3.67v-13.1h5.24q2.12 0 3.26.94a3 3 0 0 1 1.15 2.43q0 1.14-.64 1.87c-.64.73-.99.83-1.71 1.01v.02q1.2.1 2.01.92c.81.82.82 1.29.82 2.22q0 1.64-1.18 2.67-1.18 1.02-3.4 1.02zm2.64-2.13h2.52q1.05 0 1.63-.44.58-.46.58-1.27c0-.81-.19-.98-.57-1.3a2.4 2.4 0 0 0-1.6-.48h-2.56zm0-5.52h2.4q.9 0 1.4-.45c.5-.45.52-.7.52-1.2q0-.78-.51-1.22c-.51-.44-.81-.45-1.4-.45h-2.4zm13.2 7.86a5 5 0 0 1-2.47-.6q-1.05-.61-1.65-1.7a5 5 0 0 1-.59-2.54q0-1.45.6-2.55.59-1.1 1.64-1.7 1.07-.6 2.47-.61 1.42 0 2.47.61 1.06.6 1.65 1.7.6 1.1.6 2.55t-.6 2.54q-.58 1.08-1.65 1.7-1.05.6-2.47.6m0-2.1q.96 0 1.53-.72.58-.73.58-2.02 0-1.3-.58-2.03t-1.53-.73q-.93 0-1.52.73c-.59.73-.58 1.16-.58 2.03q0 1.29.58 2.02.59.72 1.52.72m10.46 2.1a5 5 0 0 1-2.47-.6q-1.05-.61-1.65-1.7a5 5 0 0 1-.59-2.54q0-1.45.59-2.55.6-1.1 1.65-1.7 1.06-.6 2.47-.61 1.42 0 2.47.61 1.06.6 1.65 1.7.6 1.1.6 2.55t-.6 2.54q-.58 1.08-1.65 1.7-1.05.6-2.47.6m0-2.1q.94 0 1.53-.72.58-.73.58-2.02 0-1.3-.58-2.03t-1.53-.73-1.52.73a3.2 3.2 0 0 0-.58 2.03q0 1.29.58 2.02.59.72 1.52.72m10.01 2.12q-1.8 0-3-.83a3 3 0 0 1-1.3-2.32h2.55q.08.6.51.95.45.34 1.2.34.72 0 1.13-.27.42-.27.42-.7 0-.37-.33-.59-.31-.23-.88-.34l-1.62-.32q-2.76-.53-2.76-2.7 0-1.34 1.06-2.13 1.06-.8 2.87-.8 1.8 0 2.9.85a2.8 2.8 0 0 1 1.14 2.3h-2.4q0-.56-.45-.93a1.6 1.6 0 0 0-1.12-.38q-.66 0-1.04.3a.8.8 0 0 0-.38.69q0 .36.29.59.3.22.84.34l1.75.34q1.41.27 2.07.9.66.61.67 1.64a2.6 2.6 0 0 1-.53 1.62 3.4 3.4 0 0 1-1.45 1.07 6 6 0 0 1-2.14.38m11.02-9.51v2.03h-1.9v4.38q0 .48.2.66.18.18.71.18h1v2.03H350q-1.53 0-2.26-.6t-.72-1.86v-4.8h-1.6v-2.02h1.6v-2.53h2.6v2.53zm5.41 9.5a4.3 4.3 0 0 1-4.07-2.34 5.4 5.4 0 0 1-.57-2.51q0-1.42.58-2.52a4.4 4.4 0 0 1 3.97-2.34q1.37 0 2.4.61 1.02.6 1.6 1.7.57 1.08.57 2.5v.69h-6.6q.04 1.03.6 1.64.58.62 1.6.62.75 0 1.26-.33.5-.32.68-.86h2.37q-.18.93-.79 1.63c-.6.7-.92.84-1.54 1.1q-.94.4-2.06.4m-2.1-5.86h4.14a2 2 0 0 0-.65-1.37 2 2 0 0 0-1.43-.51q-.87 0-1.41.5-.54.51-.65 1.38m7.97 5.64v-9.28h2.5v1.58h.02q.26-.84.8-1.24.56-.4 1.47-.4l.77.01v2.21l-1.12-.04q-.8 0-1.33.54-.51.55-.52 1.6v5.02z"/></g><defs><linearGradient id="b" x2="500" y1="85" y2="85" gradientUnits="userSpaceOnUse"><stop offset="0" stop-color="#ff8719"/><stop offset="1" stop-color="#ff5e19"/></linearGradient><linearGradient id="a" x1="253.83" x2="253.03" y1="-10.52" y2="170.88" gradientUnits="userSpaceOnUse"><stop offset="0" stop-color="#ff8719"/><stop offset="1" stop-color="#ff5e19"/></linearGradient></defs><path fill="#fff" d="m449.15 75.17-11.56 16.44.04 4.37h13.28v5.8h4.97v-5.76h3.67V91.9h-3.48l-.23-16.72zm1.85 4.8.1 11.99s-.03.07-8.63.07c0 0 .1-.1 8.53-12.05"/></svg>