<svg xmlns="http://www.w3.org/2000/svg" width="500" height="170" fill="none"><rect width="498" height="168" x="1" y="1" fill="url(#a)" rx="39"/><rect width="498" height="168" x="1" y="1" stroke="url(#b)" stroke-width="2" rx="39"/><path fill="#fff" fill-rule="evenodd" d="M104.74 102.42c-3.2 0-5.8-2.7-5.8-6v-.2h-5.95v.17c0 6.7 5.25 12.13 11.74 12.13s11.75-5.42 11.75-12.13v-.17h-5.94v.17a5.9 5.9 0 0 1-5.78 6.03h-.03zM93.3 62.93c-4.68.03-8.46 3.97-8.43 8.8s3.84 8.74 8.52 8.7a8.6 8.6 0 0 0 8.43-8.71c0-4.85-3.8-8.77-8.47-8.79zm-2.66 8.79a2.74 2.74 0 0 1 2.66-2.78 2.73 2.73 0 0 1 2.7 2.75 2.74 2.74 0 0 1-2.67 2.77h-.03a2.7 2.7 0 0 1-2.66-2.74M79.05 56.27c16.33-5.35 22.5-8.7 25.33-10.35 2.78 1.64 9 4.98 25.33 10.35 0 1.89 1.02 60.07-25.33 60.03-26.34-.05-25.33-58.14-25.33-60.03m25.33 67.79c34.08 0 32.73-70.96 32.73-73.41-21.1-6.92-29.12-11.22-32.73-13.3-3.63 2.11-11.66 6.41-32.77 13.3 0 2.45-1.3 73.45 32.77 73.4m2.75-55.51v5.91h16.4v-5.91z" clip-rule="evenodd"/><path fill="#fff" d="M135.4 130.3c9.9-5.28 11.57-14.26 8.1-18.65-7.75 5.95-9.22 13.77-8.1 18.66M155.28 36c-1.7 10.27 2.21 17.74 6.62 20.05 3.6-10.37-2.76-18.3-6.62-20.05m-4.91 79.45c7.26-8.35 5.06-16.73.39-19.51-4.37 7.6-3.68 14.69-.4 19.5m3.95-34.39c-2.19 9.2 1.78 15.13 4.97 17.49 3.97-9.86-.78-16.2-4.97-17.49m7.86 1.5c1.92-9.25-2.9-15.16-7.4-15.86-.78 8.35 2.89 13.78 7.4 15.86m.43-15.5c.29-9.61-5.36-13.01-8.37-13.1.19 7.93 4.54 12.06 8.37 13.1m-26.06 64.83c5.5 3.68 15.6 1.63 21.28-9.1-6.97-2.37-15.86 4.19-21.28 9.1m14.84-15.77c6.53 2.3 15.6-3.04 17.79-14.06-7.07-.45-13.89 8.11-17.8 14.06m9.42-16.97a8 8 0 0 0 1.74-.23c6.68-1.47 10.32-8.48 9.9-16.39-6.44 1.2-9.93 10.2-11.64 16.62m2.97-16.83c5.44-.85 10.51-7.2 8.96-16.88-5.96 1.82-8.36 10.48-8.96 16.88m.52-15.55c3.38-1.4 7.83-6.95 4.54-15.98-4.97 2.53-5.4 10.23-4.54 15.98M73.6 130.3c-9.9-5.29-11.57-14.27-8.1-18.66 7.75 5.95 9.22 13.77 8.1 18.66M53.72 36c1.7 10.27-2.22 17.74-6.62 20.05-3.6-10.37 2.76-18.3 6.62-20.05m4.91 79.45c-7.26-8.35-5.06-16.73-.39-19.51 4.37 7.6 3.68 14.69.4 19.5m-3.95-34.39c2.19 9.2-1.78 15.13-4.97 17.49-3.97-9.86.78-16.2 4.97-17.49m-7.86 1.5c-1.92-9.25 2.9-15.16 7.4-15.86.78 8.35-2.89 13.78-7.4 15.86m-.43-15.5c-.29-9.61 5.36-13.01 8.37-13.1-.19 7.93-4.54 12.06-8.37 13.1m26.06 64.83c-5.5 3.68-15.6 1.63-21.28-9.1 6.97-2.37 15.86 4.19 21.28 9.1m-14.84-15.77c-6.53 2.3-15.6-3.04-17.79-14.06 7.07-.45 13.89 8.11 17.8 14.06M48.2 99.14a8 8 0 0 1-1.74-.23c-6.68-1.47-10.32-8.48-9.9-16.39 6.44 1.2 9.93 10.2 11.64 16.62M45.24 82.3c-5.44-.85-10.51-7.2-8.96-16.88 5.97 1.82 8.36 10.48 8.96 16.88m-.52-15.55c-3.38-1.4-7.83-6.95-4.54-15.98 4.97 2.53 5.4 10.23 4.54 15.98m161.88.41c-5.31 0-8.56-2.97-8.56-8.31v-1.78h5.1v1.81c0 2.4 1.3 3.73 3.4 3.73s3.4-1.32 3.4-3.73V40.6h5.41v18.37c0 5.27-3.32 8.21-8.75 8.21m18.16-.07c-3.71 0-6.38-1.85-6.38-5.56 0-4.18 3.37-5.37 7.24-5.73 3.39-.33 4.59-.49 4.59-1.68V54c0-1.37-1.15-2.32-3.05-2.32-1.93 0-3.2.99-3.32 2.41h-4.87c.23-3.83 3.26-6.26 8.35-6.26s8 2.4 8 6.37v12.58h-5.06v-2.62h-.07c-.99 1.81-2.59 2.94-5.43 2.94m1.44-3.6c2.5 0 4.04-1.5 4.04-3.5v-1.87c-.6.34-2.06.58-3.73.85-1.77.26-3.18.95-3.18 2.42 0 1.32 1.13 2.1 2.87 2.1m17.26 3.28-6.87-18.56h5.43l3.06 9.18q.7 2.2 1.33 4.4.63-2.2 1.3-4.4l3.03-9.18h5.38l-6.9 18.56zm19.76.32c-3.71 0-6.38-1.85-6.38-5.56 0-4.18 3.37-5.37 7.24-5.73 3.4-.33 4.59-.49 4.59-1.68V54c0-1.37-1.15-2.32-3.04-2.32-1.94 0-3.2.99-3.33 2.41h-4.87c.23-3.83 3.26-6.26 8.35-6.26s8 2.4 8 6.37v12.58h-5.06v-2.62h-.07c-.99 1.81-2.59 2.94-5.43 2.94m1.44-3.6c2.5 0 4.04-1.5 4.04-3.5v-1.87c-.6.34-2.05.58-3.72.85-1.78.26-3.19.95-3.19 2.42 0 1.32 1.13 2.1 2.87 2.1m22.81 3.7c-6.71 0-10.63-3.32-10.63-9.01h5.22c.07 2.88 2.1 4.57 5.45 4.57 3 0 5-1.32 5-3.36 0-1.69-1.38-2.67-4.7-3.4l-2.76-.59c-5.19-1.12-7.7-3.53-7.7-7.28 0-4.76 3.99-7.96 9.95-7.96 6.03 0 9.77 3.18 9.93 8.46h-5.06c-.2-2.48-2.04-4.01-4.85-4.01-2.67 0-4.56 1.33-4.56 3.25 0 1.62 1.3 2.51 4.52 3.22l2.52.54c5.59 1.18 8.06 3.48 8.06 7.42 0 5.04-3.93 8.16-10.38 8.16m21.95 0c-5.59 0-9.32-3.94-9.32-9.69s3.75-9.72 9.32-9.72c4.89 0 8.38 3.04 8.72 7.36h-5.01c-.26-1.9-1.57-3.18-3.64-3.18-2.62 0-4.17 2.15-4.17 5.54 0 3.37 1.57 5.5 4.17 5.5 2.1 0 3.27-1.26 3.6-3.22h5.05c-.23 4.3-3.78 7.4-8.72 7.4m11.5-.42V48.22h4.99v3.16h.05c.69-2.23 2.1-3.28 4.54-3.28q.9 0 1.53.03v4.41c-.4-.01-1.36-.08-2.24-.08-2.12 0-3.69 1.47-3.69 4.27v10.05zm13.64 0V48.22h5.18v18.56zm2.58-20.9c-1.7 0-2.95-1.17-2.95-2.76s1.25-2.76 2.95-2.76 2.95 1.18 2.95 2.76-1.25 2.76-2.95 2.76m6.28 28.25v-25.9h5.11v2.5h.05c1.15-1.93 3.1-2.9 5.5-2.9 4.75 0 8 3.96 8 9.65 0 5.82-3.18 9.69-8.03 9.69a5.7 5.7 0 0 1-5.4-3.16h-.05v10.12zm9.3-11.18c2.5 0 4.14-1.99 4.14-5.47s-1.63-5.46-4.15-5.46c-2.62 0-4.36 2.16-4.36 5.46 0 3.33 1.74 5.47 4.36 5.47m22.9-14.73v4.06h-3.8v8.77c0 1.27.4 1.67 1.8 1.67h2v4.06h-3.03c-4.08 0-5.96-1.54-5.96-4.92v-9.58h-3.2v-4.06h3.2v-5.06h5.18v5.06zm-165.17 53.99c-7.05 0-12.34-5.2-12.34-13.5 0-8.35 5.29-13.54 12.34-13.54s12.36 5.19 12.36 13.54c0 8.33-5.31 13.5-12.36 13.5m0-4.79c4.04 0 6.9-3.16 6.9-8.71 0-5.6-2.86-8.76-6.9-8.76s-6.9 3.17-6.9 8.76c0 5.55 2.85 8.71 6.9 8.71m25.35 4.78c-6.72 0-10.64-3.32-10.64-9.01h5.22c.07 2.88 2.1 4.57 5.45 4.57 3 0 5-1.32 5-3.36 0-1.69-1.38-2.67-4.7-3.4l-2.76-.59c-5.19-1.12-7.7-3.53-7.7-7.28 0-4.76 3.99-7.96 9.95-7.96 6.03 0 9.77 3.18 9.93 8.45h-5.06c-.2-2.47-2.04-4-4.85-4-2.67 0-4.56 1.33-4.56 3.25 0 1.62 1.3 2.51 4.52 3.22l2.52.54c5.59 1.18 8.06 3.48 8.06 7.42 0 5.04-3.93 8.16-10.38 8.16m19.5-.43 9.2-26.19h6.96l9.2 26.2h-6l-1.83-5.72h-9.79l-1.9 5.71zm9.2-10.03h6.93l-.88-2.71c-.81-2.67-1.62-5.34-2.55-8.6a397 397 0 0 1-2.6 8.6zm19.85 10.03-5.72-18.56h5.42l1.7 6.49c.56 2.2 1.07 4.55 1.58 6.85.57-2.3 1.13-4.66 1.7-6.85l1.78-6.49h4.68l1.76 6.49c.58 2.18 1.14 4.53 1.69 6.83.5-2.3 1-4.64 1.54-6.83l1.69-6.49h5.5l-5.71 18.56h-5.36l-2.16-7.38c-.44-1.56-.87-3.22-1.29-4.87q-.62 2.5-1.3 4.87l-2.18 7.38zm30.69.32c-3.71 0-6.38-1.85-6.38-5.56 0-4.18 3.37-5.37 7.24-5.73 3.4-.33 4.59-.49 4.59-1.68V89c0-1.37-1.15-2.32-3.05-2.32-1.93 0-3.2.99-3.32 2.41h-4.87c.23-3.83 3.26-6.26 8.35-6.26s8 2.4 8 6.37v12.58h-5.06v-2.62h-.07c-.99 1.82-2.58 2.94-5.43 2.94m1.44-3.6c2.5 0 4.04-1.5 4.04-3.5v-1.87c-.6.34-2.05.58-3.72.85-1.78.26-3.19.95-3.19 2.42 0 1.32 1.13 2.1 2.87 2.1m12.78 3.28V83.22h4.99v3.16h.05c.69-2.23 2.1-3.28 4.54-3.28q.9 0 1.53.03v4.41c-.39-.01-1.36-.08-2.23-.08-2.13 0-3.7 1.47-3.7 4.27v10.05zm20.51.39c-4.85 0-8.03-3.87-8.03-9.69 0-5.7 3.25-9.65 8-9.65 2.4 0 4.27.95 5.46 2.96h.02v-10.2h5.17v26.2h-5.1v-2.85h-.02c-1.07 2.16-3.06 3.23-5.5 3.23m1.34-4.22c2.62 0 4.36-2.14 4.36-5.47 0-3.3-1.74-5.46-4.36-5.46-2.52 0-4.15 1.98-4.15 5.46s1.63 5.47 4.15 5.47m20.26 3.83v-3.97l9.6-8.2c2.32-2.05 4.03-3.54 4.03-6 0-2.5-1.65-4.12-4.22-4.12-2.81 0-4.54 1.92-4.54 5.1h-4.97c0-5.7 3.7-9.42 9.5-9.42 5.39 0 9.25 3.2 9.25 8.16 0 3.67-2.12 6.11-5.78 9.24l-5.55 4.84v.03h11.46v4.34zm31.86.43c-6.6 0-10.6-5.19-10.6-13.5 0-8.34 4-13.54 10.6-13.54s10.6 5.19 10.6 13.54c0 8.31-4.01 13.5-10.6 13.5m0-4.33c3.4 0 5.5-3.48 5.5-9.17 0-5.72-2.1-9.22-5.5-9.22-3.41 0-5.5 3.5-5.5 9.22 0 5.69 2.09 9.17 5.5 9.17m13.11 3.9v-3.97l9.6-8.2c2.32-2.05 4.02-3.54 4.02-6 0-2.5-1.65-4.12-4.22-4.12-2.8 0-4.53 1.92-4.53 5.1h-4.98c0-5.7 3.7-9.42 9.51-9.42 5.38 0 9.25 3.2 9.25 8.16 0 3.67-2.13 6.11-5.78 9.24l-5.56 4.84v.03h11.46v4.34zm31.57.43c-6.52 0-10.32-4.72-10.32-12.85 0-8.64 3.66-14.19 10.53-14.19 5.22 0 8.72 3.22 9.2 7.54h-5.07c-.39-2.06-1.88-3.36-4.18-3.36-3.75 0-5.5 3.3-5.5 8.18h.03c1.3-2 3.53-3.08 6.24-3.08a8.5 8.5 0 0 1 8.76 8.76c0 5.34-4.01 9-9.69 9m-.04-4.26c2.6 0 4.6-2.06 4.6-4.74s-1.96-4.7-4.54-4.7c-2.6 0-4.6 2.06-4.6 4.71a4.57 4.57 0 0 0 4.54 4.73m-249.9 30.83v-13.1h5.17q1.47 0 2.54.53a4 4 0 0 1 1.66 1.49q.6.96.6 2.28c0 1.32-.2 1.65-.6 2.3q-.6.94-1.67 1.48-1.09.52-2.56.52h-2.43v4.5zm2.71-6.76h2.29q1.07 0 1.7-.55t.62-1.49-.63-1.48a2.5 2.5 0 0 0-1.7-.55h-2.28zm8.52 6.76v-9.28h2.5v1.58h.02q.26-.83.8-1.24.54-.4 1.47-.4l.76.02v2.2l-.46-.02-.65-.02q-.8 0-1.33.54-.52.55-.52 1.6v5.02zm10.93.21a5 5 0 0 1-2.47-.6q-1.05-.6-1.65-1.69a5 5 0 0 1-.59-2.55q0-1.45.6-2.55.59-1.08 1.64-1.7 1.06-.6 2.47-.6t2.47.6 1.65 1.7.6 2.55-.6 2.54-1.65 1.7-2.47.6m0-2.1q.95 0 1.53-.72.58-.73.58-2.02 0-1.3-.58-2.03c-.58-.73-.9-.73-1.53-.73q-.94 0-1.52.73a3.2 3.2 0 0 0-.58 2.03q0 1.3.58 2.02.59.72 1.52.72m9.77 2.09a3.7 3.7 0 0 1-3.53-2.3 6 6 0 0 1-.49-2.55q0-1.42.5-2.51.51-1.1 1.4-1.7.9-.6 2.1-.61.9 0 1.6.37.68.35 1.13 1.1h.01v-5.1h2.59v13.1h-2.55v-1.42h-.01q-.4.8-1.13 1.21-.7.4-1.62.4m.67-2.1q.98 0 1.58-.74.6-.75.6-2 0-1.23-.6-1.98t-1.58-.75q-.94 0-1.52.72-.56.72-.56 2.01c0 1.3.19 1.55.56 2.03q.58.7 1.52.7m9.73 2.12q-1.49 0-2.37-.95a4 4 0 0 1-.89-2.72v-5.8h2.6v5.33q0 .93.44 1.42t1.26.48q.8 0 1.31-.5t.51-1.58v-5.16h2.58v9.28h-2.54v-1.46q-.46.8-1.18 1.23t-1.72.43m11.54.01q-1.4 0-2.44-.6a4.3 4.3 0 0 1-1.63-1.7 5.3 5.3 0 0 1-.58-2.54q0-1.44.58-2.53.58-1.1 1.63-1.71 1.05-.62 2.44-.62 1.23 0 2.17.48a3.9 3.9 0 0 1 2.2 3.2h-2.51a2 2 0 0 0-.58-1.15q-.47-.44-1.24-.44a1.8 1.8 0 0 0-1.53.75q-.55.75-.55 2.02t.55 2.01 1.53.74q.78 0 1.23-.44t.57-1.17h2.52a3.6 3.6 0 0 1-.62 1.91q-.57.84-1.54 1.32a5 5 0 0 1-2.2.47m11.09-9.49v2.03h-1.9v4.39q0 .47.18.66.2.17.72.17h1v2.03h-1.52q-1.52 0-2.25-.6-.72-.6-.72-1.86v-4.79h-1.6v-2.03h1.6v-2.53h2.59v2.53zm1.3 9.28v-9.28h2.6v9.28zm1.3-10.45q-.64 0-1.07-.38a1.3 1.3 0 0 1-.42-1q0-.6.42-.98.43-.4 1.07-.4.63 0 1.05.4t.42.98q0 .6-.42 1a1.5 1.5 0 0 1-1.05.38m5.76 10.45-3.43-9.28h2.71l1.53 4.59q.18.54.34 1.1l.33 1.1.32-1.1.33-1.1 1.51-4.59h2.7l-3.45 9.28zm7.34 0v-9.28h2.6v9.28zm1.3-10.45q-.65 0-1.07-.38a1.3 1.3 0 0 1-.42-1q0-.6.42-.98.43-.4 1.06-.4t1.06.4.42.98-.42 1a1.5 1.5 0 0 1-1.06.38m8.62 1.17v2.03h-1.9v4.39q0 .47.18.66.2.17.72.17h1v2.03h-1.51q-1.53 0-2.26-.6t-.72-1.86v-4.79h-1.6v-2.03h1.6v-2.53h2.59v2.53zm1.98 12.96v-2.05h1.17q.47 0 .69-.23.23-.23.41-.75l.26-.68-3.57-9.25h2.71l1.56 4.59.61 2 .63-2 1.56-4.59h2.7l-4.1 10.72q-.44 1.16-1.14 1.7t-1.78.54zm13.66-3.68v-13.1h5.25q2.1 0 3.25.94a3 3 0 0 1 1.15 2.43q0 1.14-.63 1.88-.64.74-1.71 1v.02q1.2.1 2 .93c.8.83.83 1.28.83 2.21q0 1.65-1.18 2.67t-3.41 1.02zm2.65-2.12h2.52q1.05 0 1.63-.45t.58-1.27c0-.82-.2-.97-.58-1.29q-.57-.48-1.59-.48h-2.56zm0-5.53h2.4q.9 0 1.4-.45c.5-.45.51-.7.51-1.2q0-.77-.5-1.22c-.5-.45-.82-.45-1.41-.45h-2.4zm13.2 7.86q-1.4 0-2.47-.6-1.05-.6-1.65-1.69a5 5 0 0 1-.6-2.55q0-1.45.6-2.55.6-1.08 1.65-1.7 1.06-.6 2.47-.6t2.47.6 1.65 1.7q.6 1.1.6 2.55 0 1.46-.6 2.54-.6 1.1-1.65 1.7-1.06.6-2.47.6m0-2.1q.94 0 1.53-.72.57-.72.58-2.02 0-1.3-.58-2.03t-1.53-.73-1.52.73c-.58.73-.58 1.16-.58 2.03q0 1.3.58 2.02.59.72 1.52.72m10.46 2.1q-1.4 0-2.47-.6-1.06-.6-1.65-1.69a5 5 0 0 1-.6-2.55q0-1.45.6-2.55.6-1.08 1.65-1.7 1.06-.6 2.47-.6 1.4 0 2.47.6 1.06.62 1.65 1.7.6 1.1.6 2.55 0 1.46-.6 2.54-.6 1.1-1.65 1.7t-2.47.6m0-2.1q.94 0 1.53-.72.57-.72.58-2.02 0-1.3-.58-2.03t-1.53-.73-1.52.73a3.2 3.2 0 0 0-.58 2.03q0 1.3.58 2.02t1.52.72m10 2.12q-1.8 0-2.99-.82a3 3 0 0 1-1.3-2.32h2.55q.07.6.51.94.45.35 1.2.35.72 0 1.13-.27.4-.28.41-.7 0-.37-.32-.6-.31-.22-.88-.34l-1.63-.32q-2.76-.53-2.76-2.7 0-1.32 1.07-2.12 1.05-.8 2.87-.8 1.8 0 2.9.84a2.8 2.8 0 0 1 1.13 2.3h-2.4q0-.56-.44-.93a1.6 1.6 0 0 0-1.12-.37q-.67 0-1.05.29a.8.8 0 0 0-.37.69q0 .36.29.59.3.23.83.34l1.76.34q1.41.28 2.06.9.67.62.67 1.64a2.6 2.6 0 0 1-.52 1.62 3.4 3.4 0 0 1-1.45 1.07q-.93.38-2.14.38m11.02-9.5v2.02h-1.9v4.39q0 .47.19.66.2.17.72.17h1v2.03H350q-1.53 0-2.26-.6t-.72-1.86v-4.79h-1.6v-2.03h1.6v-2.53h2.6v2.53zm5.4 9.48a4.3 4.3 0 0 1-4.07-2.34 5.4 5.4 0 0 1-.56-2.5q0-1.41.58-2.51a4.4 4.4 0 0 1 3.97-2.35q1.37 0 2.39.62 1.02.6 1.6 1.7.58 1.07.58 2.49v.7h-6.6q.03 1.02.6 1.64.57.6 1.6.61.75 0 1.25-.32.51-.33.69-.86h2.36q-.17.92-.78 1.62-.62.7-1.55 1.1t-2.05.4m-2.1-5.85h4.14a2 2 0 0 0-.66-1.37 2 2 0 0 0-1.42-.51q-.87 0-1.41.51-.55.5-.66 1.37m7.98 5.64v-9.28h2.5v1.58h.02q.26-.83.8-1.23t1.47-.41l.76.02v2.2l-.46-.02-.66-.02q-.8 0-1.32.55-.52.54-.52 1.59v5.02z"/><defs><linearGradient id="a" x1="0" x2="500" y1="85" y2="85" gradientUnits="userSpaceOnUse"><stop stop-color="#ff8719"/><stop offset="1" stop-color="#ff5e19"/></linearGradient><linearGradient id="b" x1="253.83" x2="253.03" y1="-10.52" y2="170.88" gradientUnits="userSpaceOnUse"><stop stop-color="#ff8719"/><stop offset="1" stop-color="#ff5e19"/></linearGradient></defs></svg>